<?xml version="1.0" encoding="UTF-8" standalone="no"?>
<svg
   width="72.758568mm"
   height="98.287849mm"
   viewBox="0 0 72.758568 98.287849"
   version="1.1"
   id="svg1455"
   xmlns="http://www.w3.org/2000/svg"
   >
  <defs
     id="defs1452" />
  <g
     id="layer1"
     transform="translate(-34.765156,-79.74538)">
    <path
       fill="currentColor"
       style="stroke-width:0.0846667"
       d="m 78.453264,177.96647 -0.46567,-0.0668 -0.381,-0.1737 -0.381,-0.17371 -0.35626,-0.0952 -0.35625,-0.0953 -0.0519,-0.084 -0.0519,-0.084 -0.39618,-0.21279 -0.39617,-0.21279 -0.34852,-0.2301 -0.34851,-0.2301 -0.37115,-0.24698 -0.37116,-0.24697 -0.889,-0.71674 -0.889,-0.71674 -0.59266,-0.5676 -0.59267,-0.56761 -0.97367,-1.02563 -0.97366,-1.02565 -0.44966,-0.53337 -0.44966,-0.53338 -0.6793,-0.80433 -0.67931,-0.80433 -0.20164,-0.29634 -0.20164,-0.29633 -0.23573,-0.31373 -0.23573,-0.31374 -0.508,-0.68983 -0.508,-0.68983 -0.16933,-0.23095 -0.16934,-0.23095 -0.31523,-0.45882 -0.31523,-0.45882 -0.3621,-0.5275 -0.36211,-0.52751 -0.254,-0.43064 -0.254,-0.43064 -0.23283,-0.30233 -0.23283,-0.30233 -0.002,-0.0942 -0.002,-0.0942 -0.247616,-0.381 -0.247613,-0.381 -0.169065,-0.21888 -0.169066,-0.21888 -0.05453,-0.21726 -0.05453,-0.21725 -0.183422,-0.19437 -0.183421,-0.19437 -0.177871,-0.34316 -0.177872,-0.34316 -0.251972,-0.46567 -0.251973,-0.46567 -0.279897,-0.46566 -0.279897,-0.46567 -0.151086,-0.35051 -0.151085,-0.3505 -0.0852,-0.0527 -0.0852,-0.0526 -0.138113,-0.41583 -0.138115,-0.41582 -0.122359,-0.10155 -0.12236,-0.10155 v -0.19093 -0.19093 l 0.108222,-0.0898 0.108223,-0.0898 0.336277,0.31731 0.336278,0.3173 0.296333,0.3686 0.296333,0.3686 0.538803,0.64238 0.538804,0.64238 0.07188,0.0272 0.07188,0.0272 0.398403,0.56549 0.398402,0.56549 0.468445,0.55034 0.46846,0.55033 0.38512,0.42841 0.38512,0.42841 0.55034,0.7012 0.55033,0.7012 0.21167,0.23698 0.21166,0.23698 0.64623,0.70775 0.64622,0.70774 0.32744,0.39676 0.32745,0.39676 0.7748,0.88627 0.77479,0.88628 1.05387,1.0453 1.05386,1.04529 0.80074,0.76633 0.80075,0.76633 0.33393,0.24699 0.33392,0.24699 0.46567,0.38395 0.46567,0.38395 0.33866,0.25903 0.33867,0.25903 0.55033,0.32885 0.55034,0.32884 0.16933,0.13914 0.16934,0.13915 0.56616,0.26754 0.56617,0.26755 h 0.0971 0.0971 l 0.63434,0.254 0.63433,0.254 0.86144,-8.5e-4 0.86144,-8.4e-4 0.42333,-0.19673 0.42333,-0.19671 0.254,-0.0631 0.254,-0.0631 0.127,-0.11247 0.127,-0.11246 0.39073,-0.19844 0.39073,-0.19844 0.37127,-0.20208 0.37127,-0.20206 0.23933,-0.2001 0.23933,-0.2001 h 0.0834 0.0834 l 0.89955,-0.74083 0.89956,-0.74083 0.96818,-0.93134 0.96818,-0.93133 0.26483,-0.34898 0.26484,-0.34898 0.81138,-0.96335 0.81137,-0.96336 0.3952,-0.59266 0.3952,-0.59267 0.15892,-0.21167 0.15893,-0.21166 0.4125,-0.62301 0.4125,-0.62301 0.22861,-0.39299 0.22861,-0.39299 0.18399,-0.381 0.18399,-0.381 0.1095,-0.127 0.1095,-0.127 0.39136,-0.762 0.39135,-0.762 0.0784,-0.127 0.0784,-0.127 0.16344,-0.33867 0.16343,-0.33867 0.17122,-0.33866 0.17121,-0.33867 0.47728,-1.016 0.47727,-1.016 0.19766,-0.381 0.19765,-0.381 0.0616,-0.28909 0.0616,-0.28909 0.20189,-0.37969 0.20188,-0.37968 v -0.11599 -0.11599 l 0.254,-0.47599 0.254,-0.47598 v -0.17926 -0.17925 l 0.20126,-0.38033 0.20127,-0.38033 0.0609,-0.29633 0.0609,-0.29633 0.15618,-0.27163 0.15618,-0.27162 0.0877,-0.47469 0.0877,-0.47469 0.17183,-0.24131 0.17183,-0.24131 0.0531,-0.40938 0.0531,-0.40937 0.27337,-0.59267 0.27338,-0.59267 0.0983,-0.24144 0.0983,-0.24145 0.12489,0.10365 0.12489,0.10365 v 0.74271 0.74271 l -0.1661,0.53809 -0.16611,0.53808 -0.0819,0.72168 -0.0819,0.72167 -0.17004,0.46366 -0.17003,0.46366 -0.0581,0.42333 -0.0581,0.42334 -0.1907,0.46566 -0.1907,0.46567 -0.0586,0.40629 -0.0586,0.4063 -0.20503,0.44037 -0.20503,0.44037 -8.5e-4,0.2035 -8.5e-4,0.2035 -0.21847,0.46181 -0.21847,0.46182 -0.0477,0.30835 -0.0477,0.30836 -0.18907,0.381 -0.18907,0.381 -0.063,0.29633 -0.063,0.29633 -0.2014,0.34611 -0.20141,0.34611 v 0.16067 0.16068 l -0.22116,0.46689 -0.22116,0.46688 -0.28811,0.59266 -0.28812,0.59267 10e-4,0.11452 0.001,0.11452 -0.20806,0.39348 -0.20807,0.39348 -0.34235,0.71967 -0.34236,0.71966 -0.12467,0.21167 -0.12466,0.21167 -0.13049,0.29633 -0.13048,0.29633 -0.38687,0.71967 -0.38688,0.71967 -0.18858,0.254 -0.18858,0.254 -0.10837,0.26904 -0.10838,0.26905 -0.1616,0.14624 -0.1616,0.14625 v 0.0851 0.0851 l -0.43589,0.64258 -0.43588,0.64258 -0.43195,0.61596 -0.43194,0.61596 -0.16934,0.23141 -0.16933,0.23142 -0.4795,0.63429 -0.4795,0.63429 -1.25617,1.28011 -1.25616,1.28011 -0.508,0.42382 -0.508,0.42384 -0.37116,0.24339 -0.37115,0.2434 -0.34852,0.22695 -0.34851,0.22695 -0.59266,0.29773 -0.59267,0.29774 -0.508,0.18002 -0.508,0.18002 -0.41477,0.11928 -0.41478,0.11928 -1.10922,0.0387 -1.10923,0.0387 -0.46567,-0.0668 z m 2.032,-11.07421 -0.127,-0.0467 -0.15344,-0.13384 -0.15344,-0.13385 -0.21652,-0.42661 -0.21653,-0.4266 -0.20281,-0.39796 -0.20281,-0.39796 -0.084,-0.0519 -0.084,-0.0519 -0.15979,-0.31212 -0.15979,-0.31211 -0.19376,-0.381 -0.19377,-0.381 -0.19615,-0.23933 -0.19616,-0.23933 -0.004,-0.0993 -0.004,-0.0993 -0.37175,-0.59266 -0.37176,-0.59267 -0.39361,-0.762 -0.39362,-0.762 -0.15194,-0.16933 -0.15193,-0.16934 -0.0994,-0.31072 -0.0994,-0.31073 -0.13424,-0.11141 -0.13424,-0.1114 -0.16001,-0.33987 -0.16,-0.33987 -0.29185,-0.46566 -0.29185,-0.46567 -0.17382,-0.33867 -0.17382,-0.33866 -0.28997,-0.46567 -0.28998,-0.46567 -0.21642,-0.381 -0.21643,-0.381 -0.37676,-0.59266 -0.37676,-0.59267 -0.004,-0.0955 -0.004,-0.0955 -0.14042,-0.1162 -0.14042,-0.1162 -0.13643,-0.29634 -0.13644,-0.29633 -0.24551,-0.381 -0.24552,-0.381 -0.18374,-0.29633 -0.18374,-0.29634 -0.16172,-0.24336 -0.16173,-0.24336 -0.23195,-0.3493 -0.23195,-0.34931 -0.16321,-0.35051 -0.16321,-0.3505 -0.0931,-0.0576 -0.0932,-0.0576 -0.33719,-0.51893 -0.33719,-0.51892 v -0.076 -0.076 l -0.3472,-0.39399 -0.3472,-0.39399 -0.2189,-0.381 -0.2189,-0.381 -0.31055,-0.381 -0.31054,-0.381 -0.22112,-0.33867 -0.22112,-0.33866 -0.23574,-0.31404 -0.23573,-0.31403 -0.67733,-0.88015 -0.67734,-0.88015 -0.98604,-1.09734 -0.98604,-1.09733 -1.08778,-1.01048 -1.087786,-1.01048 -0.140093,-0.127 -0.140094,-0.127 -0.199081,-0.17839 -0.199081,-0.17839 -0.338667,-0.18293 -0.338667,-0.18294 -0.381,-0.29539 -0.381,-0.29539 -0.338666,-0.17255 -0.338667,-0.17256 -0.338667,-0.17763 -0.338667,-0.17764 -0.381,-0.19214 -0.381,-0.19214 -0.338666,-0.0612 -0.338667,-0.0612 -0.322282,-0.16205 -0.322282,-0.16205 -1.177724,-0.0678 -1.177725,-0.0678 -0.129827,-0.10775 -0.129827,-0.10775 v -0.11529 -0.1153 l 0.232833,-0.2485 0.232834,-0.24849 0.584259,-0.30318 0.58426,-0.30317 h 0.195772 0.195774 l 0.435754,-0.17176 0.435754,-0.17176 0.816214,-0.006 0.816213,-0.006 0.305875,0.13182 0.305875,0.13181 0.52155,0.084 0.52155,0.084 0.230909,0.16262 0.230908,0.16262 0.211667,0.0625 0.211666,0.0625 0.388413,0.24493 0.388412,0.24494 0.07726,5e-4 0.07725,5.1e-4 0.550333,0.38591 0.550333,0.3859 0.211667,0.13833 0.211667,0.13832 0.550334,0.47006 0.55033,0.47005 1.22767,1.23184 1.22767,1.23185 0.21956,0.24985 0.21957,0.24986 0.79643,0.94191 0.79644,0.94191 0.40063,0.53976 0.40063,0.53975 0.50325,0.67734 0.50326,0.67733 0.53545,0.74261 0.53544,0.74261 0.21167,0.29394 0.21167,0.29395 0.29633,0.43411 0.29633,0.43411 0.24161,0.28617 0.2416,0.28617 h 0.0675 0.0674 l 0.10132,-0.42235 0.10132,-0.42236 0.14333,-0.19148 0.14333,-0.19148 0.1035,-0.23908 0.10349,-0.23908 0.27087,-0.35359 0.27087,-0.35358 0.63723,-0.65712 0.63723,-0.65713 -0.0919,-0.14721 -0.0919,-0.14721 -0.50906,-0.42333 -0.50905,-0.42334 -0.53726,-0.42333 -0.53725,-0.42333 -0.6906,-0.68179 -0.69059,-0.68178 -0.22238,-0.33422 -0.22238,-0.33421 -0.14373,-0.21167 -0.14373,-0.21167 -0.18094,-0.21166 -0.18094,-0.21167 -0.26395,-0.55033 -0.26395,-0.55034 -0.21661,-0.49706 -0.21662,-0.49707 v -0.27573 -0.27573 l 0.13091,-0.10865 0.13091,-0.10865 0.2285,0.17061 0.22851,0.1706 0.21208,0.34302 0.21209,0.34302 0.508,0.66416 0.508,0.66415 0.381,0.41678 0.381,0.41677 0.33867,0.3591 0.33866,0.35909 0.60859,0.49413 0.60858,0.49413 0.28042,0.19635 0.28041,0.19635 0.28697,0.18465 0.28697,0.18465 0.39036,0.22941 0.39037,0.2294 0.381,0.18431 0.381,0.18431 0.21167,0.14726 0.21166,0.14726 0.29634,0.0631 0.29633,0.0631 0.33867,0.19477 0.33866,0.19478 0.42334,0.0557 0.42333,0.0557 0.55033,0.18377 0.55034,0.18378 0.84666,-0.005 0.84667,-0.005 0.55033,-0.17895 0.55034,-0.17895 0.33866,-0.0571 0.33867,-0.0571 0.55033,-0.25294 0.55034,-0.25294 0.127,-0.08 0.127,-0.0801 0.43671,-0.2051 0.43672,-0.2051 0.0561,-0.0908 0.0561,-0.0908 0.39617,-0.21309 0.39618,-0.21309 0.30927,-0.18746 0.30928,-0.18747 0.45272,-0.34641 0.45273,-0.34642 0.22514,-0.11925 0.22515,-0.11925 0.49452,-0.43912 0.49452,-0.43911 0.62656,-0.51761 0.62656,-0.5176 0.17778,0.0254 0.17777,0.0254 0.0282,0.19911 0.0282,0.19911 -0.0474,0.18901 -0.0474,0.189 -0.25948,0.33155 -0.25947,0.33155 -0.12172,0.14713 -0.12172,0.14713 -0.21253,0.33667 -0.21253,0.33666 -0.83626,0.95554 -0.83626,0.95554 -0.69471,0.635 -0.6947,0.635 -0.43839,0.29974 -0.43839,0.29975 -0.53848,0.39875 -0.53848,0.39876 -0.0965,0.002 -0.0965,0.002 -0.37257,0.25246 -0.37258,0.25246 h -0.13668 -0.13668 l -0.33741,0.18702 -0.33741,0.18702 -1.016,0.0322 -1.016,0.0322 -0.381,-0.14304 -0.381,-0.14305 -0.55603,-0.14873 -0.55603,-0.14873 -0.20597,-0.13078 -0.20597,-0.13078 -0.29634,-0.0611 -0.29633,-0.0611 -0.39935,-0.20124 -0.39935,-0.20123 h -0.30043 -0.30044 l -0.46368,0.26169 -0.46369,0.26169 -1.03579,1.09448 -1.03579,1.09449 -0.12105,0.1995 -0.12106,0.19951 0.0533,0.13892 0.0533,0.13893 0.21564,0.082 0.21564,0.082 0.94545,0.0892 0.94546,0.0892 0.38624,0.17093 0.38625,0.17094 0.61407,0.0779 0.61408,0.0779 0.24953,0.12903 0.24952,0.12903 0.44873,0.0951 0.44873,0.0951 0.29999,0.15169 0.29999,0.15169 0.49108,0.12823 0.49107,0.12824 0.14027,0.12638 0.14027,0.12638 0.254,0.06 0.254,0.0601 0.254,0.18771 0.254,0.1877 0.29633,0.0974 0.29634,0.0974 0.46566,0.32332 0.46567,0.32332 v 0.20594 0.20594 l -0.59267,-0.0293 -0.59266,-0.0293 -0.5279,-0.20881 -0.52789,-0.20882 -0.80159,-0.082 -0.80159,-0.082 -0.29812,-0.12456 -0.29812,-0.12456 -1.03939,-0.0818 -1.0394,-0.0818 -1.27,-0.0335 -1.27,-0.0335 -0.10584,0.0379 -0.10583,0.0379 v 0.1049 0.10491 l 0.27517,0.48489 0.27516,0.48488 0.21167,0.36802 0.21167,0.36803 0.16172,0.24163 0.16173,0.24162 0.21177,0.33867 0.21177,0.33867 0.24034,0.35251 0.24033,0.3525 v 0.0793 0.0793 l 0.254,0.35064 0.254,0.35063 v 0.0597 0.0597 l 0.19763,0.30088 0.19762,0.30089 0.29263,0.46566 0.29264,0.46567 0.10152,0.16933 0.10152,0.16934 0.16626,0.30636 0.16626,0.30636 0.37986,0.55484 0.37985,0.55483 0.17189,0.32414 0.17188,0.32413 0.24367,0.28799 0.24367,0.28798 0.2577,-0.37456 0.2577,-0.37455 0.14181,-0.29443 0.1418,-0.29443 0.19208,-0.34943 0.19208,-0.34943 0.37619,-0.49723 0.37618,-0.49724 0.23216,-0.39899 0.23215,-0.39899 0.34179,-0.40534 0.34178,-0.40535 0.15204,-0.16933 0.15203,-0.16933 0.1416,-0.254 0.1416,-0.254 0.51013,-0.635 0.51013,-0.635 0.33181,-0.42334 0.33181,-0.42333 0.40477,-0.51608 0.40476,-0.51608 0.59267,-0.74535 0.59267,-0.74535 0.31502,-0.38957 0.31502,-0.38957 0.15064,-0.16847 0.15065,-0.16848 0.29633,-0.35162 0.29634,-0.35163 0.508,-0.6582 0.508,-0.6582 0.46566,-0.52577 0.46567,-0.52578 0.42333,-0.57859 0.42334,-0.57859 0.50884,-0.596 0.50884,-0.596 0.67649,-0.8432 0.67649,-0.84319 0.32405,-0.38447 0.32405,-0.38448 0.24745,-0.27801 0.24745,-0.27802 v -0.0747 -0.0747 l 0.34483,-0.27311 0.34482,-0.2731 0.13689,0.1369 0.1369,0.1369 -0.17661,0.36192 -0.17661,0.36192 -0.0608,0.21167 -0.0608,0.21167 -0.14917,0.16933 -0.14918,0.16933 -0.10127,0.31633 -0.10127,0.31632 -0.083,0.0513 -0.083,0.0513 -0.1977,0.44704 -0.19771,0.44705 -0.0879,0.0543 -0.0879,0.0543 -0.10323,0.31632 -0.10324,0.31632 -0.41094,0.62557 -0.41095,0.62556 v 0.0602 0.0602 l -0.23311,0.33021 -0.23312,0.3302 -0.14739,0.29633 -0.14739,0.29634 -0.33916,0.53767 -0.33916,0.53766 v 0.0543 0.0543 l -0.28309,0.42407 -0.28309,0.42407 -0.24608,0.39656 -0.24607,0.39655 -0.254,0.43715 -0.254,0.43715 -0.17892,0.22463 -0.17891,0.22462 -0.0557,0.17816 -0.0557,0.17816 -0.50272,0.79551 -0.50272,0.79551 -0.17541,0.254 -0.17542,0.254 -0.20841,0.29633 -0.2084,0.29633 -0.12278,0.26074 -0.12278,0.26074 -0.1315,0.10915 -0.13151,0.10914 -0.35349,0.64612 -0.35349,0.64611 -0.17606,0.22463 -0.17606,0.22462 -0.254,0.43719 -0.254,0.43719 -0.21167,0.28504 -0.21167,0.28504 -0.254,0.43286 -0.254,0.43287 -0.27059,0.44061 -0.2706,0.44062 -0.17813,0.254 -0.17813,0.254 -0.44027,0.66126 -0.44028,0.66126 -0.13037,0.2345 -0.13037,0.23451 -0.31618,0.47634 -0.31618,0.47634 -0.0839,0.0519 -0.0839,0.0519 -0.12351,0.29561 -0.12351,0.29561 -0.38812,0.51033 -0.38811,0.51034 -0.0717,0.1887 -0.0717,0.18868 -0.19852,0.29107 -0.19851,0.29106 -0.24917,0.33835 -0.24917,0.33834 -0.12685,0.10583 -0.12685,0.10584 -0.0473,-0.007 -0.0473,-0.007 -0.127,-0.0467 z M 45.91481,153.68999 45.517928,153.21794 v -0.0887 -0.0887 l -0.199484,-0.26199 -0.199485,-0.26199 -0.06299,-0.21167 -0.06299,-0.21167 -0.18883,-0.29633 -0.18883,-0.29633 -0.206879,-0.33867 -0.20688,-0.33867 -0.624983,-1.27 -0.624983,-1.27 -0.410171,-0.83187 -0.41017,-0.83188 -0.0027,-0.0995 -0.0027,-0.0994 -0.251343,-0.50585 -0.251342,-0.50584 v -0.11136 -0.11137 l -0.182247,-0.35646 -0.182246,-0.35646 -0.106353,-0.381 -0.106354,-0.381 -0.166284,-0.42333 -0.166285,-0.42333 -0.186661,-0.55034 -0.186661,-0.55033 -0.156406,-0.67733 -0.156405,-0.67734 -0.134735,-0.31801 -0.134735,-0.31802 -0.0541,-0.52865 -0.0541,-0.52865 -0.16289,-0.46567 -0.162889,-0.46566 -0.0873,-1.31234 -0.0873,-1.31233 -0.01183,-1.524 -0.01183,-1.524 0.09879,-1.27 0.09879,-1.27 0.166125,-0.47037 0.166126,-0.47038 0.0627,-0.37629 0.0627,-0.37629 0.152119,-0.30027 0.152118,-0.30028 0.05702,-0.33472 0.05702,-0.33473 0.196182,-0.42334 0.196183,-0.42333 0.410031,-0.83119 0.410031,-0.83119 0.169333,-0.32449 0.169334,-0.32449 0.131295,-0.15665 0.131296,-0.15666 0.327898,-0.55033 0.327898,-0.55034 0.200411,-0.254 0.200411,-0.254 0.691842,-0.84666 0.691841,-0.84667 0.976888,-1.00632 0.976887,-1.00633 0.423333,-0.33549 0.423333,-0.33549 0.423334,-0.37329 0.423333,-0.3733 0.508,-0.40618 0.508,-0.40618 0.540136,-0.36335 0.540136,-0.36335 0.575021,-0.43636 0.575019,-0.43636 0.239511,-0.14634 0.239511,-0.14633 0.649598,-0.4061 0.649599,-0.4061 0.154734,-0.1362 0.154735,-0.1362 0.338667,-0.17997 0.338667,-0.17998 0.592667,-0.37662 0.592666,-0.37663 0.078,-0.004 0.078,-0.004 0.144095,-0.1304 0.144094,-0.13041 0.431188,-0.22943 0.431189,-0.22943 1.093891,-0.61383 1.093892,-0.61383 h 0.06517 0.06517 l 0.271587,-0.20715 0.271586,-0.20715 0.219766,-0.0552 0.219765,-0.0552 0.105918,-0.12763 0.105918,-0.12762 0.426722,-0.2044 0.426721,-0.2044 0.846667,-0.46737 0.846659,-0.46737 0.43672,-0.20379 0.43672,-0.20379 0.0513,-0.083 0.0513,-0.083 0.31632,-0.10127 0.31632,-0.10127 0.19665,-0.17945 0.19666,-0.17944 0.35368,-0.18469 0.35368,-0.1847 0.35831,-0.1721 0.3583,-0.17211 0.23436,-0.15975 0.23436,-0.15975 0.33867,-0.21644 0.33867,-0.21644 0.21166,-0.0624 0.21167,-0.0624 0.22216,-0.17892 0.22217,-0.17891 0.27793,-0.15184 0.27793,-0.15184 -0.0818,-0.0818 -0.0818,-0.0818 -0.37596,0.12064 -0.37596,0.12065 -0.47391,0.20062 -0.47391,0.20062 -0.21108,0.1383 -0.21108,0.13831 -0.37109,0.0999 -0.37109,0.0999 -0.29859,0.15703 -0.29859,0.15703 -0.63575,0.30028 -0.63575,0.30028 h -0.10504 -0.10504 l -0.40221,0.20689 -0.40221,0.2069 -0.592662,0.26808 -0.592667,0.26808 -0.211667,0.10266 -0.211666,0.10265 -0.169334,0.0923 -0.169333,0.0923 -0.508,0.22954 -0.508,0.22954 -1.735667,0.84942 -1.735667,0.84941 -0.211666,0.14497 -0.211667,0.14496 -0.211667,0.0635 -0.211666,0.0635 -0.127,0.10908 -0.127,0.10909 -0.846667,0.43464 -0.846667,0.43463 -0.592667,0.374 -0.592666,0.374 -0.08467,0.004 -0.08467,0.004 -0.290816,0.24855 -0.290816,0.24855 -0.209969,0.0527 -0.209969,0.0527 -0.218881,0.171 -0.218882,0.171 -0.465667,0.28498 -0.465666,0.28498 -0.254001,0.17625 -0.254,0.17624 -0.296333,0.1939 -0.296333,0.1939 -0.567589,0.39009 -0.567589,0.39008 -0.516307,0.42968 -0.516306,0.42967 h -0.07685 -0.07684 l -0.193926,0.19635 -0.193927,0.19634 -1.178432,1.01016 -1.178432,1.01015 -0.710269,0.72502 -0.710269,0.72502 -0.143299,0.21256 -0.143299,0.21255 -0.725297,0.84043 -0.725296,0.84042 -0.163704,0.26579 -0.163703,0.26578 -0.335689,0.49622 -0.335689,0.49621 -0.137727,0.29634 -0.137726,0.29633 -0.134976,0.11168 -0.134975,0.11169 -0.05363,0.24417 -0.05363,0.24417 -0.155318,0.19747 -0.155319,0.19745 -0.09955,0.36971 -0.09955,0.36971 -0.162608,0.3034 -0.162609,0.30339 v 0.11415 0.11415 l -0.242236,0.60677 -0.242237,0.60677 -0.05883,0.508 -0.05883,0.508 -0.183963,0.84667 -0.183964,0.84666 -0.0017,1.56634 -0.0017,1.56633 0.182391,0.71967 0.182391,0.71966 0.05679,0.627 0.05679,0.627 0.166751,0.42305 0.16675,0.42305 -0.02501,0.46726 -0.02501,0.46727 -0.09653,0.0318 -0.09653,0.0318 -0.132791,-0.38972 -0.132791,-0.38972 -0.211813,-0.25172 -0.211812,-0.25173 -0.05711,-0.31501 -0.05711,-0.315 -0.193726,-0.33867 -0.193725,-0.33867 -0.08793,-0.48472 -0.08793,-0.48473 -0.127844,-0.24722 -0.127845,-0.24722 -0.122544,-0.53806 -0.122544,-0.53805 -0.173445,-0.46566 -0.173445,-0.46567 -0.0028,-0.30803 -0.0028,-0.30803 -0.204568,-0.70797 -0.204569,-0.70797 -0.09177,-1.24353 -0.09176,-1.24353 0.0017,-1.12714 0.0017,-1.12713 0.119874,-1.22768 0.119874,-1.22766 0.124129,-0.29634 0.12413,-0.29633 0.0612,-0.508 0.0612,-0.508 0.243214,-0.46567 0.243214,-0.46566 1.77e-4,-0.10744 1.78e-4,-0.10743 0.254,-0.47598 0.254,-0.47599 v -0.12826 -0.12825 l 0.199485,-0.26199 0.199484,-0.262 0.06633,-0.21166 0.06633,-0.21167 0.468111,-0.71203 0.468111,-0.71203 0.501071,-0.6003 0.501071,-0.60031 0.825955,-0.84666 0.825955,-0.84667 0.415552,-0.37755 0.415552,-0.37756 0.719666,-0.56953 0.719667,-0.56952 0.26027,-0.21241 0.260269,-0.21241 1.027886,-0.68507 1.027885,-0.68507 0.284919,-0.11905 0.284918,-0.11905 0.111305,-0.13411 0.111305,-0.13411 0.709982,-0.39995 0.709983,-0.39994 0.484306,-0.27462 0.484306,-0.27462 0.423333,-0.2134 0.423334,-0.21341 0.211666,-0.12033 0.211667,-0.12033 0.973667,-0.46318 0.973666,-0.46317 0.290836,-0.0937 0.290835,-0.0937 0.136702,-0.12372 0.136701,-0.12371 0.361139,-0.12742 0.361138,-0.12741 0.217576,-0.17115 0.217576,-0.17114 0.136749,-3.4e-4 0.136749,-3.4e-4 0.508,-0.25337 0.508,-0.25336 0.127,-0.002 0.127,-0.002 0.423333,-0.25111 0.423333,-0.25111 0.131718,-0.001 0.131718,-0.001 0.286898,-0.21167 0.286898,-0.21167 h 0.172836 0.172835 l 0.424549,-0.2029 0.424549,-0.20291 0.641315,-0.30509 0.641316,-0.3051 h 0.101926 0.101927 l 0.653758,-0.30707 0.653758,-0.30706 0.129476,-0.11248 0.129477,-0.11247 0.499269,-0.13004 0.499269,-0.13005 0.175588,-0.15962 0.175584,-0.15962 0.31453,-0.0561 0.31453,-0.0561 0.0503,-0.0814 0.0503,-0.0814 h -0.23908 -0.23909 l -0.30604,0.16403 -0.306038,0.16403 -0.483768,0.12633 -0.483768,0.12633 -0.14027,0.12385 -0.140269,0.12385 -0.465667,0.0605 -0.465667,0.0605 -0.506739,0.24498 -0.506739,0.24499 h -0.110468 -0.110467 l -0.3339,0.17034 -0.3339,0.17035 -0.543321,0.11389 -0.54332,0.11388 -0.293567,0.18144 -0.293566,0.18143 -0.159339,8.5e-4 -0.159341,8.5e-4 -0.426251,0.19848 -0.426251,0.19849 -0.411784,0.0618 -0.411783,0.0618 -0.431966,0.19335 -0.431965,0.19334 -0.402167,0.13826 -0.402159,0.13825 -0.359833,0.1248 -0.359833,0.12481 -0.423334,0.13776 -0.423333,0.13776 -0.550333,0.19471 -0.550334,0.19471 -0.254,0.13487 -0.254,0.13487 -0.181902,5.1e-4 -0.181903,5.1e-4 -0.467069,0.24569 -0.467068,0.24569 -0.275309,0.0605 -0.275308,0.0605 -0.261053,0.16055 -0.261055,0.16054 -0.33789,0.0924 -0.33789,0.0924 -0.212443,0.1458 -0.212443,0.14579 -0.291872,0.11664 -0.291871,0.11664 -0.427796,0.24249 -0.427795,0.24248 -0.293419,0.20986 -0.293419,0.20985 -0.212619,-0.025 -0.21262,-0.025 -0.113019,-0.21167 -0.113019,-0.21166 0.052,-2.24367 0.052,-2.24367 0.08328,-0.762 0.08328,-0.762 0.124855,-0.46566 0.124856,-0.46567 0.08562,-0.86943 0.08562,-0.869426 0.159121,-0.4037 0.159121,-0.40369 0.0616,-0.50488 0.0616,-0.50487 0.15919,-0.31564 0.159189,-0.31565 0.126238,-0.60011 0.126236,-0.60011 0.09964,-0.18491 0.09964,-0.18491 0.204144,-0.55034 0.204143,-0.55033 0.133281,-0.381 0.133281,-0.381 0.157373,-0.22724 0.157374,-0.22724 0.12001,-0.32309 0.12001,-0.3231 0.280374,-0.51949 0.280375,-0.51949 0.20207,-0.36951 0.20207,-0.369506 0.200097,-0.23933 0.200096,-0.239329 v -0.108862 -0.108862 l 0.248316,-0.329142 0.248315,-0.329142 0.173174,-0.211666 0.173174,-0.211667 0.311234,-0.465667 0.311234,-0.465666 0.698015,-0.804334 0.698015,-0.804333 0.632115,-0.592667 0.632116,-0.592666 0.490742,-0.423334 0.490742,-0.423333 0.312954,-0.211667 0.312955,-0.211666 0.362105,-0.254 0.362106,-0.254 0.348511,-0.228074 0.348511,-0.228073 0.804333,-0.440669 0.804334,-0.440668 0.127,-0.106548 0.127,-0.106549 0.338666,-0.0916 0.338667,-0.0916 0.416516,-0.212612 0.416516,-0.212586 h 0.161074 0.161074 l 0.353744,-0.202522 0.353743,-0.202521 0.418352,-0.05909 0.41835,-0.05909 0.395553,-0.155912 0.395552,-0.155912 1.041415,-0.135484 1.041405,-0.135485 0.34602,-0.07992 0.34601,-0.07992 1.43934,-0.0022 1.43933,-0.0022 1.30855,0.219886 1.30855,0.219886 0.38977,0.153632 0.38976,0.153631 0.41835,0.05998 0.41836,0.05998 0.29633,0.154713 0.29633,0.154713 0.55034,0.22439 0.55033,0.224389 0.33867,0.124142 0.33866,0.124142 0.29634,0.187331 0.29633,0.187331 0.16933,0.102842 0.16934,0.102842 0.31334,0.169821 0.31335,0.169821 0.85538,0.644355 0.85539,0.644355 0.69394,0.694647 0.69393,0.694647 0.42222,0.460564 0.42222,0.460563 0.31424,0.465667 0.31424,0.465666 0.19226,0.247466 0.19227,0.247466 0.27777,0.461292 0.27778,0.461292 v 0.06791 0.06791 l 0.19616,0.239329 0.19615,0.239329 0.1718,0.338667 0.1718,0.338667 0.33779,0.6408 0.33779,0.6408 0.10303,0.40916 0.10303,0.40915 0.13668,0.26238 0.13668,0.26238 0.0616,1.43933 0.0616,1.43933 0.18267,0.40313 0.18268,0.40312 0.0902,0.78221 0.0902,0.78221 -0.05,1.57999 -0.05,1.579986 -0.12192,0.32501 -0.12193,0.32501 -0.21492,0.56437 -0.21493,0.56437 -0.17332,0.32338 -0.17332,0.32337 v 0.0545 0.0545 l -0.28822,0.47865 -0.28823,0.47865 -0.11394,0.13608 -0.11394,0.13609 -0.22386,0.39036 -0.22386,0.39035 -0.31609,0.59267 -0.3161,0.59267 -0.0757,1.56633 -0.0757,1.56633 -0.0807,0.635 -0.0807,0.635 -0.16416,0.7049 -0.16416,0.70491 -0.12362,0.14176 -0.12363,0.14177 -0.0965,0.29633 -0.0965,0.29633 -0.29633,0.42334 -0.29633,0.42333 -0.31539,0.46252 -0.3154,0.46251 -0.63319,0.68049 -0.63319,0.68048 -0.56028,0.55033 -0.56029,0.55034 -0.88183,0.85477 -0.88183,0.85478 -1.18534,1.24727 -1.18533,1.24727 -0.381,0.26074 -0.381,0.26073 -0.67733,0.24235 -0.67734,0.24235 -0.59266,0.0501 -0.59267,0.0501 -0.62859,-0.22103 -0.6286,-0.22104 h -0.16155 -0.16155 l -0.60685,-0.25551 -0.60686,-0.25551 -0.254,-0.13971 -0.254,-0.13971 -0.28528,-0.15114 -0.28528,-0.15114 -0.13805,-0.12111 -0.13806,-0.1211 -0.33867,-0.18207 -0.33866,-0.18206 -0.381,-0.24808 -0.380997,-0.24807 -0.238915,-0.13538 -0.238916,-0.13538 -0.120363,0.0999 -0.120365,0.0999 -0.201798,0.64626 -0.201799,0.64626 -0.0593,0.80433 -0.0593,0.80434 -0.161889,1.05833 -0.161889,1.05834 -8.98e-4,1.70518 -8.97e-4,1.70518 0.159957,0.79248 0.159957,0.79249 0.06006,0.50487 0.06006,0.50488 0.171283,0.42646 0.171283,0.42646 0.106257,0.381 0.106257,0.381 0.285614,0.51963 0.285613,0.51964 0.440025,0.6657 0.44002,0.66569 0.17942,0.23184 0.17943,0.23184 -0.0529,0.0857 -0.053,0.0857 h -0.15121 -0.15122 l -0.15324,-0.16933 -0.15325,-0.16933 h -0.0952 -0.0952 l -0.590199,-0.60056 -0.590192,-0.60056 -0.216831,-0.22494 -0.216831,-0.22494 -0.164169,-0.24163 -0.164169,-0.24162 -0.211667,-0.36744 -0.211667,-0.36743 -0.319496,-0.57627 -0.319497,-0.57628 -0.08956,-0.33867 -0.08956,-0.33866 -0.123236,-0.1923 -0.123235,-0.19229 -0.160676,-0.61204 -0.160678,-0.61204 -0.13051,-0.35518 -0.13051,-0.35518 -0.08739,-0.91482 -0.08739,-0.91482 -0.125803,-0.41399 -0.125803,-0.41398 -0.08393,-1.44869 -0.08393,-1.44868 -0.0012,-1.3335 -0.0012,-1.3335 h -0.09711 -0.09711 l -0.368548,0.302 -0.368549,0.302 -1.702155,1.70883 -1.702155,1.70884 -0.369102,0.42334 -0.369104,0.42333 -0.278247,0.3527 -0.278247,0.3527 -0.677047,0.83263 -0.677048,0.83264 -0.499582,0.67733 -0.499583,0.67733 -0.243936,0.33867 -0.243935,0.33867 -0.459156,0.70352 -0.459156,0.70352 -0.04993,0.15733 -0.04993,0.15733 -0.187011,0.23766 -0.18701,0.23767 -0.38668,0.76415 -0.386679,0.76415 -0.129663,0.254 -0.129663,0.254 -0.255062,0.508 -0.255063,0.508 -0.05934,0.24732 -0.05934,0.24732 -0.159791,0.20314 -0.159791,0.20314 -0.05898,0.39329 -0.05898,0.39329 -0.19849,0.42625 -0.198489,0.42625 -8.46e-4,0.17695 -8.47e-4,0.17695 -0.243119,0.71205 -0.243118,0.71205 -0.05446,0.62089 -0.05446,0.62088 -0.182918,0.69145 -0.182919,0.69145 -0.0056,2.54 -0.0056,2.54 0.18944,0.74629 0.189441,0.7463 0.08185,0.7203 0.08185,0.72029 0.222422,0.81941 0.222421,0.81941 0.172554,0.42333 0.172555,0.42333 0.08194,0.42334 0.08194,0.42333 0.118553,0.254 0.118553,0.254 0.04994,0.25874 0.04994,0.25875 -0.118416,0.0983 -0.118415,0.0983 -0.396884,-0.47204 z m 21.959444,-33.88201 0.63932,-0.15301 0.41901,-0.2839 0.41901,-0.28389 1.27,-1.27811 1.27,-1.27812 0.80434,-0.75429 0.80433,-0.75429 0.42333,-0.47754 0.42334,-0.47754 0.33866,-0.41026 0.33867,-0.41025 0.2163,-0.26173 0.21629,-0.26173 0.27054,-0.41668 0.27054,-0.41668 -4e-5,-0.0913 -3e-5,-0.0913 0.2462,-0.508 0.2462,-0.508 0.23495,-0.71967 0.23496,-0.71967 0.0529,-2.11666 0.0528,-2.11667 0.18569,-0.3354 0.1857,-0.33541 v -0.13546 -0.13547 l 0.15788,-0.16946 0.15788,-0.16947 0.0961,-0.1796 0.0961,-0.1796 v -0.1749 -0.1749 h -0.0587 -0.0587 l -0.47264,0.48684 -0.47264,0.48683 -1.14084,1.06516 -1.14083,1.06517 -0.77353,0.68 -0.77353,0.68001 -0.32714,0.2445 -0.32714,0.24449 -0.0847,0.0977 -0.0847,0.0977 -0.64839,0.53733 -0.64839,0.53733 -0.65623,0.508 -0.65623,0.508 -0.4815,0.42334 -0.4815,0.42333 -0.39754,0.29633 -0.39754,0.29634 -0.57648,0.46566 -0.57647,0.46567 -0.3202,0.254 -0.32021,0.254 -0.26399,0.22113 -0.264,0.22112 -0.75911,0.57086 -0.75911,0.57085 -0.0876,0.10184 -0.0875,0.10184 -0.59267,0.50968 -0.59267,0.50969 -0.486829,0.3635 -0.486833,0.3635 v 0.20233 0.20232 l 0.184411,0.14734 0.18441,0.14733 0.387091,0.34324 0.38709,0.34323 0.34817,0.26848 0.34816,0.26847 0.43506,0.29277 0.43505,0.29277 0.18934,0.0601 0.18933,0.0601 0.29744,0.19681 0.29745,0.1968 0.67733,0.12219 0.67734,0.1222 0.254,0.007 0.254,0.007 0.63932,-0.15302 z m 32.437546,22.19395 -0.0816,-0.15327 -0.0565,-0.635 -0.0565,-0.635 0.0845,-1.18534 0.0845,-1.18533 0.25705,-0.67733 0.25706,-0.67734 0.23529,-0.46647 0.2353,-0.46648 0.42333,-0.54022 0.42333,-0.54021 0.80107,-0.94064 0.80107,-0.94064 0.14292,-0.127 0.14292,-0.127 0.28368,-0.43995 0.28368,-0.43995 0.22206,-0.36438 0.22207,-0.36439 0.0604,-0.33867 0.0604,-0.33866 0.15622,-0.381 0.15621,-0.381 0.0905,-0.81877 0.0905,-0.81876 -2.5e-4,-0.83224 -2.6e-4,-0.83223 -0.091,-0.97201 -0.091,-0.97202 -0.23378,-0.55199 -0.23379,-0.55199 h -0.0685 -0.0685 l -0.11595,0.33491 -0.11595,0.33491 -0.1621,0.17309 -0.1621,0.17309 -0.0836,0.22071 -0.0836,0.22071 -0.30302,0.45663 -0.30301,0.45662 -0.19053,0.25198 -0.19053,0.25198 -0.46232,0.59469 -0.46232,0.59469 -2.04497,2.032 -2.044976,2.032 -0.31675,0.35876 -0.31676,0.35877 -0.18649,0.72005 -0.18649,0.72006 0.10785,0.74151 0.10785,0.74151 0.0837,1.12483 0.0837,1.12483 -0.0451,0.11746 -0.0451,0.11746 -0.12659,0.0486 -0.12658,0.0486 -0.15613,-0.0836 -0.15613,-0.0836 -0.65073,-0.74164 -0.65073,-0.74164 -0.15946,-0.31176 -0.15947,-0.31175 -0.0855,-0.0529 -0.0855,-0.0528 -0.29738,-0.64365 -0.29739,-0.64365 -0.0839,-0.74089 -0.0839,-0.74089 -0.16828,-0.53685 -0.16828,-0.53685 -5.1e-4,-0.21167 -5.1e-4,-0.21167 0.14761,-0.2128 0.14761,-0.21281 1.38759,-1.35353 1.3876,-1.35352 0.24822,-0.33867 0.24822,-0.33867 0.39618,-0.45749 0.39619,-0.4575 0.15691,-0.13517 0.15692,-0.13517 0.22408,-0.3318 0.22409,-0.3318 0.22573,-0.38787 0.22574,-0.38786 0.29576,-0.59267 0.295766,-0.59267 0.0959,-0.36111 0.0959,-0.3611 0.1611,-0.2739 0.1611,-0.27389 0.0893,-0.55033 0.0893,-0.55034 0.12698,-0.41562 0.12697,-0.41562 v -0.69085 -0.69084 l -0.12726,-0.42856 -0.12727,-0.42856 -0.084,-0.44309 -0.084,-0.44309 -0.23321,-0.37903 -0.2332,-0.37902 -0.474816,-0.56386 -0.47483,-0.56386 -0.50142,-0.46818 -0.50143,-0.46819 -0.29375,-0.18471 -0.29375,-0.1847 -0.33866,-0.18216 -0.33867,-0.18217 -0.16933,-0.14935 -0.16934,-0.14935 -0.29633,-0.0953 -0.29633,-0.0952 -0.41652,-0.21151 -0.41652,-0.21152 h -0.15753 -0.15754 l -0.48428,-0.20355 -0.48428,-0.20355 -0.42333,-0.0615 -0.42334,-0.0616 -0.55033,-0.17939 -0.55033,-0.1794 h -1.98967 -1.98967 l -0.25775,0.14133 -0.25776,0.14134 -0.54657,0.14098 -0.54658,0.14098 -0.127,0.11142 -0.127,0.11142 -0.31122,0.12848 -0.31121,0.12848 -0.50933,0.5173 -0.50933,0.5173 -0.0568,0.18815 -0.0568,0.18815 -0.19482,0.21167 -0.19481,0.21166 -0.0956,0.36111 -0.0956,0.3611 -0.15897,0.2739 -0.15897,0.27389 -0.1378,1.34813 -0.13781,1.34814 -0.0423,0.0684 -0.0423,0.0684 -0.11653,0.88778 -0.11654,0.88779 -0.20128,0.27802 -0.20128,0.27803 -0.10945,0.22087 -0.10944,0.22088 -0.33017,0.43622 -0.33016,0.43622 -0.28269,0.57057 -0.2827,0.57057 -0.15531,0.86731 -0.15531,0.86731 0.15549,1.07327 0.1555,1.07327 0.29138,0.54907 0.29138,0.54908 0.30243,0.47368 0.30242,0.47368 0.66332,0.65616 0.66331,0.65617 h 0.10663 0.10663 l 0.50566,-0.2614 0.50567,-0.2614 0.127,-0.10888 0.127,-0.10887 0.30891,-0.0553 0.30891,-0.0553 0.21363,-0.16804 0.21364,-0.16804 0.45112,-0.0861 0.45112,-0.0861 1.016,-0.0519 1.016,-0.0519 0.762,0.10375 0.762,0.10375 0.33727,0.086 0.33727,0.0861 0.27951,0.24541 0.27951,0.24541 h 0.13111 0.13111 l -0.0347,0.10584 -0.0347,0.10583 -0.2804,0.0274 -0.2804,0.0274 -0.57563,-0.14107 -0.57564,-0.14107 -0.70378,-0.009 -0.70378,-0.009 -0.80433,0.27949 -0.80434,0.27948 -0.48403,0.29163 -0.48403,0.29164 -0.67662,0.72988 -0.67663,0.72988 -0.0506,0.23058 -0.0506,0.23058 -0.16134,0.14601 -0.16135,0.14602 -0.0996,0.30726 -0.0996,0.30726 -0.15441,0.22029 -0.15441,0.22028 -0.0925,0.41472 -0.0925,0.41471 -0.15867,0.26987 -0.15868,0.26987 -0.0594,0.40746 -0.0594,0.40747 -0.15506,0.30795 -0.15506,0.30796 -0.0914,0.58104 -0.0914,0.58105 -0.24649,0.53033 -0.2465,0.53032 -0.13172,0.0506 -0.13172,0.0505 -0.32524,-0.33514 -0.32525,-0.33515 -0.45711,-0.29966 -0.4571,-0.29967 -0.21167,-0.063 -0.21167,-0.063 -0.21166,-0.14849 -0.21167,-0.14849 -0.46567,-0.12626 -0.46566,-0.12626 -0.42334,-0.1693 -0.42333,-0.1693 -0.40217,-0.13751 -0.40229,-0.13751 -0.381,-0.127 -0.381,-0.127 -0.40216,-0.13495 -0.40217,-0.13494 -0.381,-0.12237 -0.381,-0.12236 -0.40221,-0.20836 -0.40221,-0.20835 h -0.15424 -0.15423 l -0.69522,-0.36466 -0.69523,-0.36466 -0.49356,-0.43445 -0.49356,-0.43445 -0.22705,-0.43423 -0.22705,-0.43422 -0.0788,-0.89722 -0.0788,-0.89722 -0.21373,-0.32297 -0.21373,-0.32296 v -0.0837 -0.0837 l -0.29599,-0.29599 -0.296,-0.296 -0.16411,-0.0878 -0.1641,-0.0878 h -0.1749 -0.1749 v 0.38281 0.38282 l -0.2082,0.0949 -0.20819,0.0949 -0.22352,-0.14645 -0.22352,-0.14646 -0.43612,-0.1502 -0.43611,-0.1502 -0.33742,-0.18102 -0.33741,-0.18102 h -0.45281 -0.45282 l -0.28927,0.29787 -0.28927,0.29787 v 0.45221 0.4522 l 0.29463,0.6377 0.29463,0.6377 0.7228,0.67625 0.72279,0.67625 0.58434,0.39204 0.58433,0.39205 0.22207,0.26392 0.22208,0.26392 -0.0314,0.0952 -0.0314,0.0952 -0.20498,0.10459 -0.20498,0.10458 -0.508,-0.002 -0.508,-0.002 -0.33867,-0.0733 -0.33867,-0.0733 -0.50109,-0.21219 -0.5011,-0.21218 -0.49348,-0.49399 -0.49348,-0.49399 -0.28855,-0.508 -0.28855,-0.508 -0.19133,-0.77153 -0.19133,-0.77153 0.20233,-0.70021 0.20233,-0.70021 0.27886,-0.43284 0.27885,-0.43283 0.35696,-0.19093 0.35696,-0.19092 0.38231,0.003 0.38231,0.003 0.46567,0.1638 0.46567,0.16381 0.22991,0.003 0.22991,0.003 0.25984,-0.254 0.25984,-0.254 h 0.70483 0.70483 l 0.47887,0.25553 0.47886,0.25554 0.40089,0.30532 0.40088,0.30531 0.26678,0.31065 0.26679,0.31064 0.19099,0.335 0.19099,0.33501 0.1132,0.21166 0.11321,0.21167 5.1e-4,0.17001 5.1e-4,0.17 0.20013,0.38033 0.20013,0.38033 0.1045,0.32275 0.1045,0.32275 0.1837,0.0698 0.18371,0.0699 0.63349,0.0963 0.6335,0.0964 0.508,0.1592 0.508,0.15921 0.67734,0.22621 0.67733,0.2262 0.46821,0.10868 0.46822,0.10868 0.25145,0.12644 0.25145,0.12643 0.39801,0.0972 0.39802,0.0972 0.39776,0.2115 0.39777,0.21149 0.17789,0.001 0.17789,0.001 0.36847,0.21065 0.36848,0.21064 h 0.28471 0.28471 l 0.081,-0.15132 0.081,-0.15133 0.0901,-0.80766 0.0901,-0.80765 0.21293,-0.6523 0.21293,-0.6523 v -0.37732 -0.37732 l -0.3175,-0.20067 -0.3175,-0.20066 -0.65368,-0.61077 -0.65369,-0.61078 -0.40465,-0.59313 -0.40465,-0.59314 -0.15695,-0.31099 -0.15695,-0.31099 -0.11979,-0.13541 -0.11979,-0.13541 -0.273,-0.83825 -0.273,-0.83826 4.2e-4,-1.22767 4.3e-4,-1.22767 0.18082,-0.39333 0.18081,-0.39334 0.0623,-0.284 0.0623,-0.28399 0.25477,-0.46567 0.25477,-0.46567 0.22076,-0.33777 0.22075,-0.33777 0.74083,-0.88245 0.74084,-0.88245 v -0.27648 -0.27649 l -0.0881,-0.66229 -0.0881,-0.6623 -0.17537,-0.41861 -0.17537,-0.41862 -0.0414,-1.19005 -0.0414,-1.19005 0.0863,-0.33867 0.0863,-0.33866 0.2035,-0.48181 0.20351,-0.48182 0.24133,-0.36485 0.24133,-0.36486 0.21816,-0.33473 0.21817,-0.33473 0.49485,-0.53129 0.49485,-0.5313 0.81748,-0.6175 0.81748,-0.61751 0.97935,-0.47947 0.97934,-0.47946 0.24832,-0.0563 0.24833,-0.0563 0.59266,-0.19488 0.59267,-0.19488 1.35562,-0.0935 1.35562,-0.0935 1.56538,0.0931 1.56538,0.0931 0.3638,0.1585 0.3638,0.1585 0.5206,0.0944 0.52059,0.0944 0.30142,0.15376 0.30141,0.15377 0.37975,0.10226 0.37975,0.10226 0.21244,0.14882 0.21244,0.14883 0.31632,0.10259 0.31632,0.1026 0.0461,0.0745 0.046,0.0745 0.68504,0.34287 0.685036,0.34287 0.28904,0.25379 0.28904,0.25378 h 0.0739 0.0738 l 0.66328,0.56369 0.66329,0.56369 0.57965,0.60048 0.57965,0.60048 0.39477,0.57715 0.39477,0.57716 0.2344,0.39651 0.2344,0.39651 0.13421,0.29633 0.1342,0.29634 0.15302,0.33866 0.15301,0.33867 0.0959,0.52899 0.0959,0.52899 0.13115,0.36001 0.13116,0.36001 0.046,1.10954 0.046,1.10954 -0.10124,0.69241 -0.10125,0.69242 0.17082,0.45655 0.17082,0.45655 0.17289,0.32257 0.17289,0.32258 v 0.13681 0.13681 l 0.21149,0.39776 0.21149,0.39777 0.0973,0.39801 0.0973,0.39801 0.15229,0.30522 0.15229,0.30522 0.0528,0.45678 0.0528,0.45678 0.17825,0.762 0.17825,0.762 -0.0141,1.06812 -0.0141,1.06811 -0.16112,0.54055 -0.16112,0.54055 -0.0499,0.4033 -0.0498,0.40329 -0.21313,0.40037 -0.21313,0.40036 v 0.0949 0.0949 l -0.254,0.31962 -0.254,0.31962 v 0.0794 0.0795 l -0.37053,0.4804 -0.37053,0.4804 -1.15282,1.08661 -1.15282,1.0866 -0.3796,0.49914 -0.3796,0.49915 -0.0565,0.23458 -0.0565,0.23459 -0.19957,0.38033 -0.19957,0.38032 v 0.086 0.086 l -0.20181,0.38033 -0.2018,0.38032 -0.10105,0.46567 -0.10105,0.46567 -0.27087,0.5496 -0.27086,0.5496 -0.14024,0.027 -0.14023,0.027 -0.0815,-0.15327 z"
       id="path1776" />
  </g>
</svg>
